<svg xmlns="http://www.w3.org/2000/svg" width="387.778" height="315.792" viewBox="0 0 387.778 315.792">
  <g id="aip_n" transform="translate(-213 -230)">
    <ellipse id="Ellipse_52" data-name="Ellipse 52" cx="193.889" cy="11.323" rx="193.889" ry="11.323" transform="translate(213 523.146)" fill="#0000a0"/>
    <path id="Path_685" data-name="Path 685" d="M250.807,399.679,244.033,397l4.407-16.4,6.775,2.681Z" transform="translate(156.889 118.23)" fill="#ffc3bd"/>
    <path id="Path_686" data-name="Path 686" d="M318.853,407.206h-7.286l-5.677-16.873h7.286Z" transform="translate(156.889 118.23)" fill="#0000a0"/>
    <path id="Path_687" data-name="Path 687" d="M310.6,406.362h8.883a.636.636,0,0,1,.62.5l1.439,6.476a1.072,1.072,0,0,1-1.067,1.3c-2.857-.049-4.943-.217-8.543-.217-2.214,0-8.893.23-11.951.23-2.991,0-3.458-3.024-2.206-3.3,5.614-1.228,9.845-2.921,11.642-4.537A1.769,1.769,0,0,1,310.6,406.362Z" transform="translate(156.889 118.23)" fill="#14365b"/>
    <path id="Path_688" data-name="Path 688" d="M244.391,396.232l7.4,2.928a.636.636,0,0,1,.394.691l-1.046,6.552a1.059,1.059,0,0,1-1.451.819c-2.651-1.1-6.446-2.784-9.8-4.112-3.922-1.553-7.394-2.679-11.994-4.5-2.781-1.1-2.44-4.218-1.175-4.012,5.759.938,10.135,2.527,15.833,1.516A3.376,3.376,0,0,1,244.391,396.232Z" transform="translate(156.889 118.23)" fill="#14365b"/>
    <path id="Path_689" data-name="Path 689" d="M294.935,188c-.678.544-1.21.949-1.812,1.4-.584.438-1.182.847-1.778,1.258q-1.791,1.226-3.64,2.36a65.691,65.691,0,0,1-7.769,4.076,46.216,46.216,0,0,1-8.653,2.9,26.96,26.96,0,0,1-9.935.5,21.4,21.4,0,0,1-2.695-.586,8.725,8.725,0,0,1-3.818-2.4,17.3,17.3,0,0,1-3-4.62,48.526,48.526,0,0,1-2.892-8.4,100.214,100.214,0,0,1-2.69-16.529l5.375-1.02c1.664,5.028,3.405,10.136,5.343,14.918a49.79,49.79,0,0,0,3.184,6.644,8.561,8.561,0,0,0,1.586,2.041c.147.131.189-.018-.433-.244.345.038.841.146,1.293.157a18.618,18.618,0,0,0,6.158-.78,41.206,41.206,0,0,0,6.61-2.565,73.889,73.889,0,0,0,6.532-3.594c1.073-.655,2.135-1.34,3.176-2.048l1.544-1.074c.5-.344,1.051-.746,1.438-1.036Z" transform="translate(156.889 118.23)" fill="#ffc3bd"/>
    <path id="Path_690" data-name="Path 690" d="M299.478,186.208c-1.769,6.738-23.6,14.289-23.6,14.289l-6.721-15.159s8.866-4.668,17.077-8.381C291.746,174.466,301.4,178.877,299.478,186.208Z" transform="translate(156.889 118.23)" fill="#2f2e35"/>
    <path id="Path_691" data-name="Path 691" d="M251.662,168.148l.184-6.5-7.9,2.345a7.824,7.824,0,0,0,3.044,5.613Z" transform="translate(156.889 118.23)" fill="#ffc3bd"/>
    <path id="Path_692" data-name="Path 692" d="M252.222,157.126l-7.594,2.618L243.944,164l7.9-2.344Z" transform="translate(156.889 118.23)" fill="#ffc3bd"/>
    <g id="Group_972" data-name="Group 972" transform="translate(156.889 118.23)">
      <path id="Path_693" data-name="Path 693" d="M250.78,172.537l7.489-1.658a.827.827,0,0,0,.6-1.131l-6.515-17.367a1.165,1.165,0,0,0-1.3-.711l-7.489,1.658a.828.828,0,0,0-.605,1.132l6.515,17.367A1.164,1.164,0,0,0,250.78,172.537Z" fill="#000405"/>
      <path id="Path_694" data-name="Path 694" d="M251.7,172.333l7.489-1.657a.828.828,0,0,0,.605-1.132l-6.515-17.367a1.164,1.164,0,0,0-1.3-.71l-7.489,1.658a.827.827,0,0,0-.6,1.131l6.515,17.367A1.163,1.163,0,0,0,251.7,172.333Z" fill="#2f2e35"/>
      <g id="Group_971" data-name="Group 971">
        <path id="Path_695" data-name="Path 695" d="M244.113,154.854l2.928,7.807.268.719,1.315,3.506.28.749,1.053,2.8,9.388-2.08-.256-.689-.279-.729-2.53-6.75-.787-2.113-1.988-5.3-3.106.685-.795.181-4.252.937-.666.144Z" fill="#dce9ff"/>
        <g id="Group_970" data-name="Group 970">
          <path id="Path_696" data-name="Path 696" d="M250.223,158.042l-.788,6.441a.747.747,0,0,0,.909.819l5.059-1.162a.748.748,0,0,0,.414-1.2l-4.271-5.278A.747.747,0,0,0,250.223,158.042Z" fill="#100f12"/>
          <g id="Group_969" data-name="Group 969">
            <path id="Path_697" data-name="Path 697" d="M252.943,163.023c.1.35-.023.683-.285.743s-.558-.175-.662-.525.024-.683.285-.743S252.839,162.673,252.943,163.023Z" fill="#0000a0"/>
            <path id="Path_698" data-name="Path 698" d="M252.333,161.9l-.431.1a.217.217,0,0,1-.224-.164l-.838-2.3c-.046-.126,0-.253.093-.275l.719-.165c.1-.022.2.07.234.2l.55,2.369C252.463,161.773,252.418,161.877,252.333,161.9Z" fill="#fff"/>
          </g>
        </g>
      </g>
    </g>
    <g id="Group_973" data-name="Group 973" transform="translate(156.889 118.23)">
      <path id="Path_699" data-name="Path 699" d="M248.44,380.6l-2.273,8.454,6.777,2.683,2.273-8.454Z" fill="#0000a0"/>
      <path id="Path_700" data-name="Path 700" d="M313.18,390.337h-7.289l2.93,8.7h7.289Z" fill="#0000a0"/>
    </g>
    <path id="Path_701" data-name="Path 701" d="M328.917,183.167a163.7,163.7,0,0,0-7.185,23.328c-1.293,5.539-2.286,10.851-3.067,15.681-1.836,11.321-2.527,20.029-3.184,22.933-5.622-1.006-26.806-4.8-38.357-6.88-.8-41.775,11.554-61.915,11.554-61.915a76.008,76.008,0,0,1,9.375-.141c.659.029,1.328.078,2.006.137a143.708,143.708,0,0,1,16.307,2.925c1.021.235,2.051.5,3.05.774C324.5,181.412,328.917,183.167,328.917,183.167Z" transform="translate(156.889 118.23)" fill="#0000a0"/>
    <path id="Path_702" data-name="Path 702" d="M318.028,192.534A30.651,30.651,0,0,0,321,209.8c.228-1.091.476-2.191.735-3.3.972-4.162,2.111-8.456,3.471-12.771Z" transform="translate(156.889 118.23)" fill="#000405"/>
    <path id="Path_703" data-name="Path 703" d="M318.045,160.585c-1.971,5.062-4.723,14.49-1.681,18.65A16.566,16.566,0,0,1,302.9,181.98c-4.5-.908-4.157-4.1-2.837-5.672,6.1-.346,6.729-4.714,6.442-8.974Z" transform="translate(156.889 118.23)" fill="#ffc3bd"/>
    <path id="Path_704" data-name="Path 704" d="M313.338,163.34l-6.832,3.991a16.969,16.969,0,0,1-.017,2.984c2.293.078,5.8-1.824,6.461-4.121A7.976,7.976,0,0,0,313.338,163.34Z" transform="translate(156.889 118.23)" fill="#f29994"/>
    <path id="Path_705" data-name="Path 705" d="M300.283,143.416c-1.6,3.248-2.315,13.316,2.192,11.756s4.274-9.231,4.274-9.231S304.028,135.809,300.283,143.416Z" transform="translate(156.889 118.23)" fill="#0f264c"/>
    <path id="Path_706" data-name="Path 706" d="M320.086,152.8c-1.711,7.026-2.356,11.224-6.6,14.227-6.381,4.515-14.566-.312-14.988-7.708-.38-6.656,2.483-17.027,9.944-18.606A9.863,9.863,0,0,1,320.086,152.8Z" transform="translate(156.889 118.23)" fill="#ffc3bd"/>
    <path id="Path_707" data-name="Path 707" d="M316.505,147.066c-4.112,2.49-3.418,10.528,2.251,12.638s6.906-2.02,5.979-2.45c1.964-.414,9.683-3.87,6.615-10.137-1.863-3.807-7.535-3.179-7.535-3.179s6.724-6.6-3.851-11.9c-12.918-6.484-14.87,5.412-14.87,5.412s-8.314-.92-7.611,4.616c.933,7.34,8.728,1.478,8.728,1.478S306.7,150,316.505,147.066Z" transform="translate(156.889 118.23)" fill="#0f264c"/>
    <path id="Path_708" data-name="Path 708" d="M305.539,140.226a.375.375,0,0,1-.354-.253c-.078-.222-1.853-5.481.861-8.911,1.762-2.227,4.976-3.122,9.575-2.657a.374.374,0,0,1,.335.41.364.364,0,0,1-.411.336c-4.318-.436-7.316.361-8.909,2.374-2.459,3.105-.76,8.153-.742,8.2a.377.377,0,0,1-.355.5Z" transform="translate(156.889 118.23)" fill="#0f264c"/>
    <path id="Path_709" data-name="Path 709" d="M321.889,161.208a6.872,6.872,0,0,1-4.752,2.231c-2.409.093-3.057-2.195-1.922-4.177,1.021-1.784,3.505-3.982,5.7-3.135A3.087,3.087,0,0,1,321.889,161.208Z" transform="translate(156.889 118.23)" fill="#ffc3bd"/>
    <path id="Path_710" data-name="Path 710" d="M244.248,386.485l11.473,4.535s13.373-44.469,17.928-66.711a238.252,238.252,0,0,1,7.6-26.033c4.26-12.526,9.364-26.016,13.488-36.566,4.35-11.111,7.6-18.957,7.6-18.957l-25.217-4.525s-21.909,58.4-25.053,80.414C248.794,341.531,244.248,386.485,244.248,386.485Z" transform="translate(156.889 118.23)" fill="#2a478a"/>
    <path id="Path_711" data-name="Path 711" d="M281.253,298.276c4.26-12.526,9.364-26.016,13.488-36.566l-2.021-5.964C285.606,262.552,281.4,285.55,281.253,298.276Z" transform="translate(156.889 118.23)" fill="#14365b"/>
    <path id="Path_712" data-name="Path 712" d="M290.725,240.67s-3.979,62.312-3.2,83.646c.857,23.363,17.865,73.034,17.865,73.034h13.345s-8.642-44.682-10.383-67.41c-1.983-25.889,7.121-84.827,7.121-84.827Z" transform="translate(156.889 118.23)" fill="#2a478a"/>
    <g id="Group_974" data-name="Group 974" transform="translate(156.889 118.23)">
      <path id="Path_725" data-name="Path 725" d="M329.124,186.567c.97,1.131,1.8,2.146,2.631,3.249.833,1.082,1.644,2.176,2.443,3.279,1.58,2.221,3.09,4.5,4.5,6.854,1.433,2.341,2.738,4.791,3.956,7.31l.892,1.909.816,1.97c.279.648.514,1.337.757,2.016l.362,1.019.09.255.137.427c.1.328.168.622.233.925a14.96,14.96,0,0,1-.1,5.677,33.349,33.349,0,0,1-1.172,4.4,63.472,63.472,0,0,1-3.273,7.718,103.274,103.274,0,0,1-8.361,13.847l-4.752-2.711c1.957-4.724,3.861-9.578,5.493-14.328a69.859,69.859,0,0,0,2.047-7.05,23.811,23.811,0,0,0,.535-3.257,5.992,5.992,0,0,0-.1-2.135c-.013-.015-.019-.04-.026-.021-.011-.017.02.055-.021-.038l-.092-.2-.364-.8c-.244-.536-.472-1.072-.758-1.606l-.813-1.6-.873-1.6q-1.806-3.182-3.863-6.3c-1.382-2.071-2.806-4.132-4.286-6.16-1.441-2.022-3.048-4.073-4.492-5.925Z" fill="#ffc3bd"/>
      <path id="Path_726" data-name="Path 726" d="M326.95,182.568c6.888,1.042,16.043,16.59,16.043,16.59l-12.944,14.09A134.433,134.433,0,0,1,318.8,196.1C314.3,187.39,318.606,181.306,326.95,182.568Z" fill="#2f2e35"/>
      <path id="Path_727" data-name="Path 727" d="M329.624,243.328l-6.372,3.755,7.639,5.316s4.715-4.4,2.661-7.16Z" fill="#ffc3bd"/>
      <path id="Path_728" data-name="Path 728" d="M320.991,252.734l6.52,4.1,3.38-4.433-7.639-5.316Z" fill="#ffc3bd"/>
    </g>
    <g id="Group_977" data-name="Group 977" transform="translate(156.889 118.23)">
      <g id="Group_975" data-name="Group 975">
        <path id="Path_729" data-name="Path 729" d="M256.133,153.2h-1a3.5,3.5,0,0,0-3.5-3.5v-1A4.5,4.5,0,0,1,256.133,153.2Z" fill="#0000a0"/>
        <path id="Path_730" data-name="Path 730" d="M258.133,153.2h-1a5.507,5.507,0,0,0-5.5-5.5v-1A6.508,6.508,0,0,1,258.133,153.2Z" fill="#0000a0"/>
        <path id="Path_731" data-name="Path 731" d="M260.133,153.2h-1a7.508,7.508,0,0,0-7.5-7.5v-1A8.51,8.51,0,0,1,260.133,153.2Z" fill="#0000a0"/>
      </g>
      <g id="Group_976" data-name="Group 976">
        <path id="Path_732" data-name="Path 732" d="M250.908,176.59a4.505,4.505,0,0,1-4.5-4.5h1a3.5,3.5,0,0,0,3.5,3.5Z" fill="#0000a0"/>
        <path id="Path_733" data-name="Path 733" d="M250.908,178.59a6.508,6.508,0,0,1-6.5-6.5h1a5.506,5.506,0,0,0,5.5,5.5Z" fill="#0000a0"/>
        <path id="Path_734" data-name="Path 734" d="M250.908,180.59a8.51,8.51,0,0,1-8.5-8.5h1a7.508,7.508,0,0,0,7.5,7.5Z" fill="#0000a0"/>
      </g>
    </g>
    <g id="Group_982" data-name="Group 982" transform="translate(156.889 118.23)">
      <rect id="Rectangle_371" data-name="Rectangle 371" width="1" height="19.673" transform="translate(100.94 143.667)" fill="#0000a0"/>
      <rect id="Rectangle_372" data-name="Rectangle 372" width="1" height="6.313" transform="translate(100.94 168.776)" fill="#0000a0"/>
      <rect id="Rectangle_373" data-name="Rectangle 373" width="112.009" height="87.748" rx="13.653" transform="translate(104.44 123.581)" fill="#0000a0"/>
      <g id="Group_979" data-name="Group 979">
        <path id="Path_735" data-name="Path 735" d="M103.1,123.272a1,1,0,0,1-.707-.293l-7.722-7.722a1,1,0,0,1,1.414-1.414l7.722,7.722a1,1,0,0,1-.707,1.707Z" fill="#0000a0"/>
        <path id="Path_736" data-name="Path 736" d="M108.06,121.146a1,1,0,0,1-.981-.812l-1.418-7.376a1,1,0,0,1,1.964-.377l1.417,7.377a1,1,0,0,1-.793,1.17A1.024,1.024,0,0,1,108.06,121.146Z" fill="#0000a0"/>
        <path id="Path_737" data-name="Path 737" d="M100.975,128.232a.937.937,0,0,1-.189-.018L93.409,126.8a1,1,0,0,1,.377-1.964l7.377,1.418a1,1,0,0,1-.188,1.981Z" fill="#0000a0"/>
      </g>
      <path id="Path_738" data-name="Path 738" d="M214.43,163.467l24.551-7.528L214.43,181.967Z" fill="#0000a0"/>
      <g id="Group_980" data-name="Group 980">
        <path id="Path_739" data-name="Path 739" d="M184.763,183.127h-48.64a9.753,9.753,0,0,1,2.87-6.92l.97-.98a8.368,8.368,0,0,0,2.46-5.94v-11.31a18.028,18.028,0,0,1,18.68-18.01,17.819,17.819,0,0,1,4.35.71,13.112,13.112,0,0,0,12.28,17.73c.25,0,.49-.01.73-.02v10.9a8.41,8.41,0,0,0,2.46,5.94l.97.98a9.692,9.692,0,0,1,2.87,6.92Z" fill="#fff"/>
        <path id="Path_740" data-name="Path 740" d="M170.057,185.76a9.631,9.631,0,0,1-9.978,9.189,9.748,9.748,0,0,1-9.248-9.189Z" fill="#fff"/>
      </g>
      <circle id="Ellipse_53" data-name="Ellipse 53" cx="9.82" cy="9.82" r="9.82" transform="matrix(0.737, -0.676, 0.676, 0.737, 163.855, 144.697)" fill="#ff5652"/>
      <g id="Group_981" data-name="Group 981">
        <path id="Path_741" data-name="Path 741" d="M179.68,140.556v9.879h-2.73v-6.473a8.357,8.357,0,0,1-1.282.814,10.014,10.014,0,0,1-1.554.6V143.16a6.567,6.567,0,0,0,2.14-1.067,4.342,4.342,0,0,0,1.192-1.537Z" fill="#fff"/>
      </g>
    </g>
  </g>
</svg>
